HIERARCHY
ROOT Hips
{
 OFFSET 0.000000 0.000000 0.000000
 CHANNELS 6 Xposition Yposition Zposition Yrotation Xrotation Zrotation
 JOINT Chest
 {
  OFFSET 0.000000 9.585900 0.002600
  CHANNELS 3 Yrotation Xrotation Zrotation
  JOINT Chest2
  {
   OFFSET 0.000000 9.601200 -0.005300
   CHANNELS 3 Yrotation Xrotation Zrotation
   JOINT Chest3
   {
    OFFSET 0.000000 9.561800 0.000000
    CHANNELS 3 Yrotation Xrotation Zrotation
    JOINT Chest4
    {
     OFFSET 0.000000 9.552100 0.000000
     CHANNELS 3 Yrotation Xrotation Zrotation
     JOINT Neck
     {
      OFFSET 0.000000 14.453000 0.000000
      CHANNELS 3 Yrotation Xrotation Zrotation
      JOINT Head
      {
       OFFSET 0.000000 8.936500 -0.011300
       CHANNELS 3 Yrotation Xrotation Zrotation
       End Site
       {
        OFFSET 0.000000 17.073600 -0.006000
       }
      }
     }
     JOINT RightCollar
     {
      OFFSET -2.921100 9.558500 0.000000
      CHANNELS 3 Yrotation Xrotation Zrotation
      JOINT RightShoulder
      {
       OFFSET -13.519700 0.000000 0.000000
       CHANNELS 3 Yrotation Xrotation Zrotation
       JOINT RightElbow
       {
        OFFSET 0.000000 -29.696600 0.000000
        CHANNELS 3 Yrotation Xrotation Zrotation
        JOINT RightWrist
        {
         OFFSET 0.000000 -24.004700 0.000000
         CHANNELS 3 Yrotation Xrotation Zrotation
         End Site
         {
          OFFSET 0.000000 -17.728500 0.000000
         }
        }
       }
      }
     }
     JOINT LeftCollar
     {
      OFFSET 2.921100 9.558500 0.000000
      CHANNELS 3 Yrotation Xrotation Zrotation
      JOINT LeftShoulder
      {
       OFFSET 13.519700 0.000000 0.000000
       CHANNELS 3 Yrotation Xrotation Zrotation
       JOINT LeftElbow
       {
        OFFSET 0.000000 -29.696600 0.000000
        CHANNELS 3 Yrotation Xrotation Zrotation
        JOINT LeftWrist
        {
         OFFSET 0.000000 -24.004700 0.000000
         CHANNELS 3 Yrotation Xrotation Zrotation
         End Site
         {
          OFFSET 0.000000 -17.728500 0.000000
         }
        }
       }
      }
     }
    }
   }
  }
 }
 JOINT RightHip
 {
  OFFSET -7.771700 -0.012900 -0.001300
  CHANNELS 3 Yrotation Xrotation Zrotation
  JOINT RightKnee
  {
   OFFSET 0.000000 -40.869800 0.001200
   CHANNELS 3 Yrotation Xrotation Zrotation
   JOINT RightAnkle
   {
    OFFSET 0.000000 -39.717900 0.002100
    CHANNELS 3 Yrotation Xrotation Zrotation
    JOINT RightToe
    {
     OFFSET 0.000000 -4.965400 11.033500
     CHANNELS 3 Yrotation Xrotation Zrotation
     End Site
     {
      OFFSET 0.000000 -1.423100 5.872300
     }
    }
   }
  }
 }
 JOINT LeftHip
 {
  OFFSET 7.771700 -0.012900 -0.001300
  CHANNELS 3 Yrotation Xrotation Zrotation
  JOINT LeftKnee
  {
   OFFSET 0.000000 -40.869800 0.001200
   CHANNELS 3 Yrotation Xrotation Zrotation
   JOINT LeftAnkle
   {
    OFFSET 0.000000 -39.717900 0.002100
    CHANNELS 3 Yrotation Xrotation Zrotation
    JOINT LeftToe
    {
     OFFSET 0.000000 -4.965400 11.033500
     CHANNELS 3 Yrotation Xrotation Zrotation
     End Site
     {
      OFFSET 0.000000 -1.423100 5.872300
     }
    }
   }
  }
 }
}
MOTION
Frames: 9
Frame Time: 0.008333
-36.291824 52.871553 41.920249 177.227646 -33.079464 -11.427222 0.722032 13.635201 5.618491 0.370658 7.822864 2.043944 0.511488 9.793982 2.578750 0.375443 7.791620 2.032574 4.985782 20.411858 -0.895061 5.578831 -3.899427 -2.108810 0.070979 1.532764 -2.465198 -15.564913 -8.681228 6.891168 3.835999 -70.016871 6.632707 8.784163 -9.838149 -15.365978 -8.792264 3.867134 -2.807503 6.993579 -3.547846 -1.378387 -73.024605 -74.135181 79.344501 14.396792 -16.458023 5.465625 -17.376939 -32.294111 7.178720 33.236572 83.641136 29.255726 0.383941 -16.060820 1.106641 -0.671398 1.203276 -0.311960 -16.152763 -45.286224 17.564349 167.469229 78.260945 163.783435 -0.211282 -16.145899 -0.121622 -1.190687 -2.734173 -0.519522
-36.249726 53.039968 41.911414 177.220388 -33.040862 -11.446546 0.733653 13.651201 5.674777 0.365791 7.825253 2.040805 0.505156 9.811555 2.581737 0.366558 7.839668 2.048181 5.033167 20.394420 -0.876752 5.625627 -3.900048 -2.092300 0.097110 1.429646 -2.495383 -15.488179 -8.734994 6.898496 4.609603 -69.896112 5.834402 8.861730 -9.601746 -15.730966 -8.780997 3.744144 -2.834687 6.994393 -3.533532 -1.363664 -73.025130 -74.138636 79.304239 14.379036 -16.431052 5.368843 -17.422178 -32.328675 7.227514 33.345725 83.677752 29.406190 0.433551 -16.049060 1.054726 -0.692825 1.145753 -0.323432 -16.150149 -45.215545 17.687532 167.647629 78.393621 163.911065 -0.235642 -15.971543 -0.057005 -1.212369 -2.891485 -0.532625
-36.211830 53.185739 41.903571 177.235686 -32.984551 -11.446668 0.714917 13.654139 5.695978 0.362291 7.843221 2.044787 0.498311 9.801652 2.569887 0.362298 7.843207 2.044776 5.061893 20.391593 -0.846566 5.650993 -3.919060 -2.074454 0.119389 1.379614 -2.500739 -15.402477 -8.785906 6.908843 5.314343 -69.753564 5.098335 8.930215 -9.336278 -16.118522 -8.779109 3.699908 -2.830999 6.999211 -3.550377 -1.373570 -72.875507 -74.107172 79.055356 14.358510 -16.437277 5.321502 -17.472227 -32.384804 7.246033 33.417427 83.717673 29.521926 0.449982 -16.048139 1.003263 -0.691212 1.091307 -0.322827 -16.144931 -45.174244 17.776740 167.846632 78.511515 164.060493 -0.299032 -15.880191 -0.004885 -1.200105 -2.971823 -0.524462
-36.173084 53.314499 41.894036 177.241675 -32.941621 -11.442501 0.702861 13.640803 5.702017 0.362462 7.874708 2.054923 0.493224 9.774869 2.555895 0.360512 7.845268 2.043163 5.080168 20.401365 -0.814144 5.661804 -3.946380 -2.056055 0.131302 1.352952 -2.503974 -15.359364 -8.809871 6.914888 5.916485 -69.601852 4.514083 8.979326 -9.053532 -16.502056 -8.775696 3.686550 -2.824313 6.988808 -3.553040 -1.355714 -72.785330 -74.125464 78.929721 14.336037 -16.384835 5.220291 -17.558867 -32.431733 7.299668 33.472824 83.773408 29.574408 0.456418 -16.033629 0.943612 -0.667349 1.037861 -0.310371 -16.132461 -45.138979 17.853597 167.999564 78.601438 164.172556 -0.340593 -15.801511 0.037934 -1.212681 -3.045860 -0.519773
-36.134535 53.424642 41.888532 177.230996 -32.870982 -11.428830 0.699378 13.597128 5.706664 0.363913 7.905933 2.066499 0.487362 9.748436 2.540586 0.362437 7.901203 2.055147 5.086539 20.357309 -0.800089 5.659422 -3.980618 -2.068197 0.142599 1.271629 -2.520564 -15.242778 -8.843023 6.942944 6.386700 -69.429820 3.973870 9.003679 -8.757592 -16.867436 -8.778757 3.621126 -2.825220 6.937540 -3.561749 -1.304385 -72.601238 -74.173093 78.752026 14.310004 -16.304295 5.120422 -17.621568 -32.500883 7.357830 33.474852 83.815967 29.570754 0.487371 -16.078237 0.913338 -0.682037 1.048163 -0.319277 -16.122230 -45.143655 17.942093 168.146855 78.679631 164.280450 -0.381856 -15.760626 0.082461 -1.226975 -3.082791 -0.521827
-36.095130 53.526018 41.875224 177.230045 -32.854821 -11.427338 0.704331 13.634092 5.733839 0.361761 7.911809 2.065289 0.486971 9.754746 2.535093 0.361487 7.928343 2.057956 5.086163 20.312149 -0.788112 5.660719 -4.011927 -2.032960 0.171630 1.185203 -2.545073 -15.149832 -8.862037 6.983258 6.712880 -69.255960 3.572899 9.003446 -8.449830 -17.209927 -8.805234 3.584507 -2.811932 6.907753 -3.612610 -1.287524 -72.457655 -74.211256 78.636076 14.282295 -16.168985 4.999711 -17.684638 -32.511866 7.392412 33.610678 83.863699 29.721305 0.503213 -16.142091 0.851289 -0.671878 1.059550 -0.316159 -16.107969 -45.114781 17.985335 168.238427 78.733646 164.361603 -0.356887 -15.669481 0.102276 -1.274327 -3.169345 -0.547006
-36.063958 53.610166 41.866346 177.247504 -32.793355 -11.395553 0.678187 13.680654 5.750604 0.355297 7.869078 2.032365 0.489452 9.834010 2.554254 0.355420 7.869108 2.032357 5.087061 20.285749 -0.773030 5.659214 -4.041085 -2.000781 0.205100 1.106981 -2.574103 -15.086180 -8.861446 7.026230 6.892308 -69.084867 3.342902 8.982909 -8.137331 -17.521178 -8.817148 3.537123 -2.800635 6.884475 -3.643615 -1.283713 -72.188119 -74.224915 78.338866 14.240687 -16.055158 4.914063 -17.759795 -32.581007 7.392742 33.873105 83.913668 29.992325 0.512142 -16.238426 0.786103 -0.669511 1.091855 -0.304988 -16.093249 -45.144227 17.988485 168.317112 78.779565 164.427280 -0.365105 -15.637472 0.120836 -1.290034 -3.196695 -0.556138
-36.032603 53.681672 41.860694 177.270228 -32.707865 -11.381349 0.640193 13.652685 5.749782 0.353560 7.879649 2.030303 0.487241 9.847244 2.551609 0.353642 7.879700 2.030319 5.085274 20.245354 -0.771502 5.657560 -4.053678 -1.977670 0.270082 1.013783 -2.617876 -15.052084 -8.835871 7.079913 6.932956 -68.921261 3.244336 8.949652 -7.828444 -17.786052 -8.820936 3.467443 -2.798263 6.878744 -3.660138 -1.287851 -71.916141 -74.225785 78.016440 14.193950 -15.928367 4.831794 -17.857084 -32.663170 7.429134 34.053381 83.953041 30.156441 0.538736 -16.348032 0.749612 -0.690486 1.155841 -0.310236 -16.101768 -45.182393 18.053321 168.516857 78.827853 164.590876 -0.428684 -15.707977 0.151288 -1.274360 -3.132166 -0.540277
-35.998425 53.747725 41.850249 177.264107 -32.665943 -11.383249 0.642354 13.649088 5.774686 0.353447 7.904309 2.035514 0.483277 9.822418 2.538089 0.353560 7.930208 2.041451 5.082795 20.223130 -0.765502 5.654233 -4.097973 -1.992805 0.317322 0.910274 -2.665166 -14.999963 -8.793740 7.129811 6.848238 -68.772425 3.264336 8.908434 -7.527183 -17.999214 -8.825831 3.394082 -2.795952 6.834087 -3.672514 -1.263127 -71.735064 -74.259932 77.859511 14.154811 -15.738561 4.723453 -17.932182 -32.699989 7.483696 34.261976 83.992590 30.353304 0.583773 -16.456052 0.713398 -0.723491 1.221523 -0.324079 -16.102934 -45.181463 18.147305 168.715952 78.862034 164.754383 -0.471149 -15.755449 0.197849 -1.280352 -3.097370 -0.548012
